<svg xmlns="http://www.w3.org/2000/svg" xmlns:xlink="http://www.w3.org/1999/xlink" viewBox="0 0 900 405" width="900" height="405" font-family="Montserrat, 'Liberation Sans', 'DejaVu Sans', sans-serif"><defs><marker id="ah" viewBox="0 0 10 10" refX="8" refY="5" markerWidth="7" markerHeight="7" orient="auto-start-reverse"><path d="M0,0 L10,5 L0,10 z" fill="#4A8CFF"/></marker><marker id="ahd" viewBox="0 0 10 10" refX="8" refY="5" markerWidth="7" markerHeight="7" orient="auto-start-reverse"><path d="M0,0 L10,5 L0,10 z" fill="#003BA3"/></marker></defs><rect x="184.0" y="74.0" width="312.0" height="127.0" rx="12" ry="12" fill="#F5F7FA"/><rect x="184.0" y="74.0" width="312.0" height="6.0" rx="3" ry="3" fill="#2E9E5B"/><text x="340.0" y="106.0" font-size="14.5" fill="#2E9E5B" font-weight="800" text-anchor="middle">IA DECIDE</text><text x="340.0" y="132.0" font-size="12" fill="#5A6072" font-weight="500" text-anchor="middle">Calcoli, formattazione, data</text><text x="340.0" y="149.0" font-size="12" fill="#5A6072" font-weight="500" text-anchor="middle">retrieval, bozza report</text><rect x="504.0" y="74.0" width="312.0" height="127.0" rx="12" ry="12" fill="#F5F7FA"/><rect x="504.0" y="74.0" width="312.0" height="6.0" rx="3" ry="3" fill="#4A8CFF"/><text x="660.0" y="106.0" font-size="14.5" fill="#4A8CFF" font-weight="800" text-anchor="middle">IA PROPONE · UMANO</text><text x="660.0" y="126.0" font-size="14.5" fill="#4A8CFF" font-weight="800" text-anchor="middle">CONFERMA</text><text x="660.0" y="152.0" font-size="12" fill="#5A6072" font-weight="500" text-anchor="middle">Scelta comparabili,</text><text x="660.0" y="169.0" font-size="12" fill="#5A6072" font-weight="500" text-anchor="middle">pubblicazione report</text><rect x="184.0" y="209.0" width="312.0" height="127.0" rx="12" ry="12" fill="#F5F7FA"/><rect x="184.0" y="209.0" width="312.0" height="6.0" rx="3" ry="3" fill="#4A8CFF"/><text x="340.0" y="241.0" font-size="14.5" fill="#4A8CFF" font-weight="800" text-anchor="middle">IA PROPONE · UMANO</text><text x="340.0" y="261.0" font-size="14.5" fill="#4A8CFF" font-weight="800" text-anchor="middle">CONFERMA</text><text x="340.0" y="287.0" font-size="12" fill="#5A6072" font-weight="500" text-anchor="middle">Assunzioni DCF, parametri WACC,</text><text x="340.0" y="304.0" font-size="12" fill="#5A6072" font-weight="500" text-anchor="middle">scelta modello</text><rect x="504.0" y="209.0" width="312.0" height="127.0" rx="12" ry="12" fill="#F5F7FA"/><rect x="504.0" y="209.0" width="312.0" height="6.0" rx="3" ry="3" fill="#003BA3"/><text x="660.0" y="241.0" font-size="14.5" fill="#003BA3" font-weight="800" text-anchor="middle">UMANO DECIDE · IA</text><text x="660.0" y="261.0" font-size="14.5" fill="#003BA3" font-weight="800" text-anchor="middle">SUPPORTA</text><text x="660.0" y="287.0" font-size="12" fill="#5A6072" font-weight="500" text-anchor="middle">Raccomandazione BUY/SELL, rating</text><text x="660.0" y="304.0" font-size="12" fill="#5A6072" font-weight="500" text-anchor="middle">creditizio</text><text x="340.0" y="56.0" font-size="13" fill="#003BA3" font-weight="800" text-anchor="middle">REVERSIBILE</text><text x="660.0" y="56.0" font-size="13" fill="#003BA3" font-weight="800" text-anchor="middle">IRREVERSIBILE</text><text x="158" y="137.5" font-size="13" fill="#003BA3" font-weight="800" text-anchor="middle" transform="rotate(-90 158 137.5)">RISCHIO BASSO</text><text x="158" y="272.5" font-size="13" fill="#003BA3" font-weight="800" text-anchor="middle" transform="rotate(-90 158 272.5)">RISCHIO ALTO</text></svg>